<?xml version="1.0" standalone="no"?><!DOCTYPE svg PUBLIC "-//W3C//DTD SVG 1.1//EN" "http://www.w3.org/Graphics/SVG/1.1/DTD/svg11.dtd"><svg t="1711616092807" class="icon" viewBox="0 0 1085 1024" version="1.1" xmlns="http://www.w3.org/2000/svg" p-id="30128" xmlns:xlink="http://www.w3.org/1999/xlink" width="211.9140625" height="200"><path d="M0 428.089036h440.916865v595.698934H0z" fill="#34CA9D" p-id="30129"></path><path d="M52.901543 413.989026h388.015322v550.642509H52.901543zM281.470131 392.255927z" fill="#FFFFFF" p-id="30130"></path><path d="M201.322704 371.158919h80.041412v42.406046h-80.041412zM445.263485 1024h-42.406046a38.907547 38.907547 0 0 0-38.907548-39.013562h-328.646858V371.052904H116.616627v42.406046H77.179004v529.015426h286.240812a80.359458 80.359458 0 0 1 38.907547 9.965421V639.483176h42.406046z" fill="#282D33" p-id="30131"></path><path d="M116.616627 481.308624z" fill="#FFFFFF" p-id="30132"></path><path d="M117.040687 460.105601h164.323429v42.406046h-164.323429z" fill="#282D33" p-id="30133"></path><path d="M116.616627 559.229734z" fill="#FFFFFF" p-id="30134"></path><path d="M117.040687 538.026711h164.323429v42.406046h-164.323429z" fill="#282D33" p-id="30135"></path><path d="M116.616627 636.090693z" fill="#FFFFFF" p-id="30136"></path><path d="M117.040687 614.781654h241.078373v42.406047H117.040687z" fill="#282D33" p-id="30137"></path><path d="M116.616627 712.633606z" fill="#FFFFFF" p-id="30138"></path><path d="M117.040687 691.430583h241.078373v42.406046H117.040687z" fill="#282D33" p-id="30139"></path><path d="M116.616627 789.282534z" fill="#FFFFFF" p-id="30140"></path><path d="M117.040687 768.079511h241.078373v42.406047H117.040687z" fill="#282D33" p-id="30141"></path><path d="M116.616627 866.037478z" fill="#FFFFFF" p-id="30142"></path><path d="M117.040687 844.834455h241.078373v42.406046H117.040687z" fill="#282D33" p-id="30143"></path><path d="M424.590537 202.06481a336.067916 336.067916 0 0 1 531.453774 273.412983v15.160161L1002.584947 572.481623l61.700797 106.015116H985.940574v132.942955a90.642924 90.642924 0 0 1-90.642924 90.642923H752.071229v120.645202z" fill="#FFFFFF" p-id="30144"></path><path d="M773.274252 1022.727819h-42.406046V902.082617a21.203023 21.203023 0 0 1 21.203023-21.203023h143.544466A69.545916 69.545916 0 0 0 964.73755 811.439694V678.496739a21.203023 21.203023 0 0 1 21.203024-21.203023h41.239879l-89.900817-156.05425a21.203023 21.203023 0 0 1-2.862409-11.449633v-14.31204a314.970908 314.970908 0 0 0-498.271042-256.238534l-24.701522-34.454913a357.376954 357.376954 0 0 1 565.060565 290.693447v9.859405l106.015116 182.876075a21.203023 21.203023 0 0 1-18.340615 31.804534H1007.143597v111.421887a111.951962 111.951962 0 0 1-111.527902 111.845946H773.274252z" fill="#282D33" p-id="30145"></path><path d="M464.346206 453.956724a187.328709 187.328709 0 1 0 187.222693-187.328709A187.328709 187.328709 0 0 0 464.346206 453.956724z" fill="#F8C44F" p-id="30146"></path><path d="M651.568899 453.956724m-102.516616 0a102.516617 102.516617 0 1 0 205.033233 0 102.516617 102.516617 0 1 0-205.033233 0Z" fill="#FFFFFF" p-id="30147"></path><path d="M651.568899 577.676364a123.71964 123.71964 0 1 1 123.71964-123.71964 123.825655 123.825655 0 0 1-123.71964 123.71964z m0-205.033233a81.313594 81.313594 0 1 0 81.313594 81.313593 81.419609 81.419609 0 0 0-81.313594-81.313593zM360.451392 363.631846h-42.406046v-27.457915a68.909825 68.909825 0 0 0-68.909825-68.80381v-42.406046A111.421886 111.421886 0 0 1 360.451392 336.173931zM440.916865 517.353763h-42.406046V136.971529A137.183559 137.183559 0 0 1 535.482348 0v42.406046a94.671498 94.671498 0 0 0-94.565483 94.565483z" fill="#282D33" p-id="30148"></path><path d="M379.322083 608.738793A61.806812 61.806812 0 0 1 318.045346 547.037996V358.649136h42.406046V547.037996a19.294751 19.294751 0 1 0 38.483487 0V439.962729h42.406047v107.075267a61.700797 61.700797 0 0 1-62.018843 61.700797zM670.121545 334.689719h-42.406047V136.971529A94.671498 94.671498 0 0 0 533.044 42.406046V0a137.183559 137.183559 0 0 1 137.077545 136.971529zM181.921938 411.550678h-42.406046v-75.376747a111.421886 111.421886 0 0 1 111.315871-111.209856v42.406046a68.909825 68.909825 0 0 0-68.909825 68.80381z" fill="#282D33" p-id="30149"></path></svg>